<svg width="166" height="167" viewBox="0 0 166 167" fill="none" xmlns="http://www.w3.org/2000/svg">
<g clip-path="url(#clip0_25_965)">
<g clip-path="url(#clip1_25_965)">
<mask id="mask0_25_965" style="mask-type:luminance" maskUnits="userSpaceOnUse" x="0" y="0" width="41" height="41">
<path d="M0.72998 20.4999C0.72998 9.6751 9.50518 0.899902 20.33 0.899902H40.8148V40.9861H0.72998V20.4999Z" fill="white"/>
</mask>
<g mask="url(#mask0_25_965)">
<path d="M-4.87012 20.4998C-4.87012 6.58381 6.41248 -4.7002 20.3299 -4.7002H40.8147V6.4998H20.3299C12.5977 6.4998 6.32988 12.7676 6.32988 20.4998H-4.87012ZM-4.87012 40.986V20.4998C-4.87012 6.58381 6.41248 -4.7002 20.3299 -4.7002V6.4998C12.5977 6.4998 6.32988 12.7676 6.32988 20.4998V40.986H-4.87012Z" fill="white"/>
</g>
<mask id="mask1_25_965" style="mask-type:luminance" maskUnits="userSpaceOnUse" x="0" y="126" width="41" height="41">
<path d="M0.72998 146.5C0.72998 157.325 9.50518 166.1 20.33 166.1H40.8148V126.015H0.72998V146.5Z" fill="white"/>
</mask>
<g mask="url(#mask1_25_965)">
<path d="M-4.87012 146.5C-4.87012 160.417 6.41248 171.7 20.3299 171.7H40.8147V160.5H20.3299C12.5977 160.5 6.32988 154.232 6.32988 146.5H-4.87012ZM-4.87012 126.015V146.5C-4.87012 160.417 6.41248 171.7 20.3299 171.7V160.5C12.5977 160.5 6.32988 154.232 6.32988 146.5V126.015H-4.87012Z" fill="white"/>
</g>
<mask id="mask2_25_965" style="mask-type:luminance" maskUnits="userSpaceOnUse" x="125" y="0" width="41" height="41">
<path d="M165.93 20.4999C165.93 9.6751 157.155 0.899902 146.33 0.899902H125.845V40.9861H165.93V20.4999Z" fill="white"/>
</mask>
<g mask="url(#mask2_25_965)">
<path d="M171.53 20.4998C171.53 6.5824 160.247 -4.7002 146.33 -4.7002H125.845V6.4998H146.33C154.062 6.4998 160.33 12.7676 160.33 20.4998H171.53ZM171.53 40.986V20.4998C171.53 6.5824 160.247 -4.7002 146.33 -4.7002V6.4998C154.062 6.4998 160.33 12.7676 160.33 20.4998V40.986H171.53Z" fill="white"/>
</g>
<mask id="mask3_25_965" style="mask-type:luminance" maskUnits="userSpaceOnUse" x="125" y="126" width="41" height="41">
<path d="M165.93 146.5C165.93 157.325 157.155 166.1 146.33 166.1H125.845V126.015H165.93V146.5Z" fill="white"/>
</mask>
<g mask="url(#mask3_25_965)">
<path d="M171.53 146.5C171.53 160.417 160.247 171.7 146.33 171.7H125.845V160.5H146.33C154.062 160.5 160.33 154.232 160.33 146.5H171.53ZM171.53 126.015V146.5C171.53 160.417 160.247 171.7 146.33 171.7V160.5C154.062 160.5 160.33 154.232 160.33 146.5V126.015H171.53Z" fill="white"/>
</g>
</g>
</g>
<defs>
<clipPath id="clip0_25_965">
<rect width="165.2" height="165.2" fill="white" transform="translate(0.72998 0.899902)"/>
</clipPath>
<clipPath id="clip1_25_965">
<rect width="165.2" height="165.2" fill="white" transform="translate(0.72998 0.899902)"/>
</clipPath>
</defs>
</svg>
