<svg width="13" height="14" viewBox="0 0 13 14" fill="none" xmlns="http://www.w3.org/2000/svg">
<g clip-path="url(#clip0_32_1121)">
<path d="M1.94759 0.73889L1.9479 1.58324C1.94794 1.68505 1.9884 1.78268 2.06039 1.85466C2.13238 1.92665 2.23 1.96711 2.33181 1.96715L10.2477 1.967L0.112335 12.1025C0.0403771 12.1745 -2.89211e-05 12.2722 1.55314e-08 12.374C2.89521e-05 12.4758 0.0404902 12.5735 0.112489 12.6455L0.709642 13.2426C0.85947 13.3925 1.10265 13.3925 1.25263 13.2425L11.388 3.107L11.3877 11.0235C11.3877 11.1253 11.4282 11.2229 11.5002 11.2949C11.5722 11.3669 11.6698 11.4073 11.7716 11.4074H12.6159C12.7177 11.4073 12.8154 11.3669 12.8874 11.2949C12.9593 11.2229 12.9998 11.1253 12.9998 11.0235L13 0.738892C13 0.637086 12.9595 0.539461 12.8875 0.467473C12.8155 0.395486 12.7179 0.355025 12.6161 0.354983L2.3315 0.35498C2.22969 0.355022 2.13207 0.395483 2.06008 0.467471C1.9881 0.539459 1.94764 0.637084 1.94759 0.73889Z" fill="#111112"/>
</g>
<defs>
<clipPath id="clip0_32_1121">
<rect width="13" height="13" fill="white" transform="translate(0 0.35498)"/>
</clipPath>
</defs>
</svg>
