<svg width="166" height="32" viewBox="0 0 166 32" fill="none" xmlns="http://www.w3.org/2000/svg">
<path d="M1.7642 27V12.4545H7.58807C8.65814 12.4545 9.55066 12.6132 10.2656 12.9304C10.9806 13.2476 11.518 13.688 11.8778 14.2514C12.2377 14.8101 12.4176 15.4541 12.4176 16.1832C12.4176 16.7514 12.304 17.2509 12.0767 17.6818C11.8494 18.108 11.5369 18.4583 11.1392 18.733C10.7462 19.0028 10.2964 19.1946 9.78977 19.3082V19.4503C10.3438 19.474 10.8622 19.6302 11.3452 19.919C11.8329 20.2079 12.2282 20.6127 12.5312 21.1335C12.8343 21.6496 12.9858 22.2652 12.9858 22.9801C12.9858 23.7519 12.794 24.4408 12.4105 25.0469C12.0317 25.6482 11.4706 26.1241 10.7273 26.4744C9.9839 26.8248 9.06771 27 7.97869 27H1.7642ZM4.83949 24.4858H7.34659C8.2036 24.4858 8.8286 24.3224 9.22159 23.9957C9.61458 23.6643 9.81108 23.224 9.81108 22.6747C9.81108 22.2723 9.71402 21.9171 9.51989 21.6094C9.32576 21.3016 9.04877 21.0601 8.68892 20.8849C8.33381 20.7098 7.91004 20.6222 7.41761 20.6222H4.83949V24.4858ZM4.83949 18.5412H7.11932C7.54072 18.5412 7.91477 18.4678 8.24148 18.321C8.57292 18.1695 8.83333 17.9564 9.02273 17.6818C9.21686 17.4072 9.31392 17.0781 9.31392 16.6946C9.31392 16.169 9.12689 15.7453 8.75284 15.4233C8.38352 15.1013 7.85795 14.9403 7.17614 14.9403H4.83949V18.5412ZM13.93 27V16.0909H16.8633V17.9943H16.9769C17.1758 17.3172 17.5096 16.8059 17.9783 16.4602C18.4471 16.1098 18.9869 15.9347 19.5977 15.9347C19.7492 15.9347 19.9125 15.9441 20.0877 15.9631C20.2629 15.982 20.4168 16.008 20.5494 16.0412V18.7259C20.4073 18.6832 20.2108 18.6454 19.9599 18.6122C19.7089 18.5791 19.4793 18.5625 19.271 18.5625C18.8259 18.5625 18.4281 18.6596 18.0778 18.8537C17.7321 19.0431 17.4575 19.3082 17.2539 19.6491C17.055 19.9901 16.9556 20.383 16.9556 20.8281V27H13.93ZM21.1136 27V16.0909H24.1392V27H21.1136ZM22.6335 14.6847C22.1837 14.6847 21.7978 14.5355 21.4759 14.2372C21.1586 13.9342 21 13.572 21 13.1506C21 12.7339 21.1586 12.3764 21.4759 12.0781C21.7978 11.7751 22.1837 11.6236 22.6335 11.6236C23.0833 11.6236 23.4669 11.7751 23.7841 12.0781C24.1061 12.3764 24.267 12.7339 24.267 13.1506C24.267 13.572 24.1061 13.9342 23.7841 14.2372C23.4669 14.5355 23.0833 14.6847 22.6335 14.6847ZM30.4776 31.3182C29.4975 31.3182 28.6571 31.1832 27.9563 30.9134C27.2603 30.6482 26.7063 30.286 26.2944 29.8267C25.8825 29.3674 25.6149 28.8513 25.4918 28.2784L28.2901 27.902C28.3754 28.1198 28.5103 28.3234 28.695 28.5128C28.8796 28.7022 29.1235 28.8537 29.4265 28.9673C29.7343 29.0857 30.1083 29.1449 30.5487 29.1449C31.2068 29.1449 31.7489 28.9839 32.1751 28.6619C32.6059 28.3447 32.8214 27.812 32.8214 27.0639V25.0682H32.6935C32.561 25.3712 32.3621 25.6577 32.0969 25.9276C31.8318 26.1974 31.4909 26.4176 31.0742 26.5881C30.6576 26.7585 30.1604 26.8438 29.5827 26.8438C28.7636 26.8438 28.0179 26.6544 27.3455 26.2756C26.6779 25.892 26.1452 25.3073 25.7475 24.5213C25.3545 23.7306 25.158 22.7315 25.158 21.5241C25.158 20.2884 25.3593 19.2562 25.7617 18.4276C26.1642 17.599 26.6992 16.9787 27.3668 16.5668C28.0392 16.1548 28.7754 15.9489 29.5756 15.9489C30.1864 15.9489 30.6978 16.053 31.1097 16.2614C31.5217 16.465 31.8531 16.7206 32.104 17.0284C32.3597 17.3314 32.5562 17.6297 32.6935 17.9233H32.8072V16.0909H35.8114V27.1065C35.8114 28.0346 35.5842 28.8111 35.1296 29.4361C34.6751 30.0611 34.0453 30.5298 33.2404 30.8423C32.4402 31.1596 31.5193 31.3182 30.4776 31.3182ZM30.5415 24.571C31.0292 24.571 31.4412 24.4503 31.7773 24.2088C32.1183 23.9626 32.3787 23.6122 32.5586 23.1577C32.7433 22.6984 32.8356 22.1491 32.8356 21.5099C32.8356 20.8707 32.7456 20.3168 32.5657 19.848C32.3858 19.3745 32.1254 19.0076 31.7844 18.7472C31.4435 18.4867 31.0292 18.3565 30.5415 18.3565C30.0444 18.3565 29.6254 18.4915 29.2844 18.7614C28.9435 19.0265 28.6855 19.3958 28.5103 19.8693C28.3351 20.3428 28.2475 20.8897 28.2475 21.5099C28.2475 22.1397 28.3351 22.6842 28.5103 23.1435C28.6902 23.598 28.9483 23.9508 29.2844 24.2017C29.6254 24.4479 30.0444 24.571 30.5415 24.571ZM40.2447 20.6932V27H37.2191V12.4545H40.1594V18.0156H40.2873C40.5335 17.3717 40.9312 16.8674 41.4805 16.5028C42.0297 16.1335 42.7186 15.9489 43.5472 15.9489C44.3048 15.9489 44.9653 16.1146 45.5288 16.446C46.0969 16.7727 46.5373 17.2438 46.8498 17.8594C47.167 18.4702 47.3233 19.2017 47.3185 20.054V27H44.293V20.5938C44.2977 19.9214 44.1272 19.3982 43.7816 19.0241C43.4407 18.6501 42.9625 18.4631 42.3469 18.4631C41.935 18.4631 41.5704 18.5507 41.2532 18.7259C40.9407 18.901 40.6945 19.1567 40.5146 19.4929C40.3394 19.8243 40.2494 20.2244 40.2447 20.6932ZM54.5021 16.0909V18.3636H47.9325V16.0909H54.5021ZM49.424 13.4773H52.4496V23.6477C52.4496 23.9271 52.4922 24.1449 52.5774 24.3011C52.6626 24.4527 52.781 24.5592 52.9325 24.6207C53.0888 24.6823 53.2687 24.7131 53.4723 24.7131C53.6143 24.7131 53.7564 24.7012 53.8984 24.6776C54.0405 24.6491 54.1494 24.6278 54.2251 24.6136L54.701 26.8651C54.5495 26.9124 54.3364 26.9669 54.0618 27.0284C53.7872 27.0947 53.4534 27.1349 53.0604 27.1491C52.3312 27.1776 51.692 27.0805 51.1428 26.858C50.5982 26.6354 50.1745 26.2898 49.8714 25.821C49.5684 25.3523 49.4193 24.7604 49.424 24.0455V13.4773ZM59.1587 27V12.4545H68.9599V14.9901H62.234V18.456H68.4556V20.9915H62.234V24.4645H68.9883V27H59.1587ZM70.348 27V16.0909H73.2315V18.0156H73.3594C73.5866 17.3764 73.9654 16.8722 74.4957 16.5028C75.026 16.1335 75.6605 15.9489 76.3991 15.9489C77.1473 15.9489 77.7841 16.1359 78.3097 16.5099C78.8352 16.8793 79.1856 17.3812 79.3608 18.0156H79.4744C79.697 17.3906 80.0994 16.8911 80.6818 16.517C81.2689 16.1383 81.9626 15.9489 82.7628 15.9489C83.7808 15.9489 84.607 16.2732 85.2415 16.9219C85.8807 17.5658 86.2003 18.4796 86.2003 19.6634V27H83.1818V20.2599C83.1818 19.6539 83.0208 19.1993 82.6989 18.8963C82.3769 18.5933 81.9744 18.4418 81.4915 18.4418C80.9422 18.4418 80.5137 18.617 80.206 18.9673C79.8982 19.313 79.7443 19.7699 79.7443 20.3381V27H76.8111V20.196C76.8111 19.661 76.6572 19.2348 76.3494 18.9176C76.0464 18.6004 75.6463 18.4418 75.1491 18.4418C74.813 18.4418 74.5099 18.527 74.2401 18.6974C73.9749 18.8632 73.7642 19.0975 73.608 19.4006C73.4517 19.6989 73.3736 20.0492 73.3736 20.4517V27H70.348ZM87.5902 27V16.0909H90.4737V18.0156H90.6016C90.8288 17.3764 91.2076 16.8722 91.7379 16.5028C92.2682 16.1335 92.9027 15.9489 93.6413 15.9489C94.3894 15.9489 95.0263 16.1359 95.5518 16.5099C96.0774 16.8793 96.4278 17.3812 96.603 18.0156H96.7166C96.9392 17.3906 97.3416 16.8911 97.924 16.517C98.5111 16.1383 99.2048 15.9489 100.005 15.9489C101.023 15.9489 101.849 16.2732 102.484 16.9219C103.123 17.5658 103.442 18.4796 103.442 19.6634V27H100.424V20.2599C100.424 19.6539 100.263 19.1993 99.9411 18.8963C99.6191 18.5933 99.2166 18.4418 98.7337 18.4418C98.1844 18.4418 97.7559 18.617 97.4482 18.9673C97.1404 19.313 96.9865 19.7699 96.9865 20.3381V27H94.0533V20.196C94.0533 19.661 93.8994 19.2348 93.5916 18.9176C93.2886 18.6004 92.8885 18.4418 92.3913 18.4418C92.0552 18.4418 91.7521 18.527 91.4822 18.6974C91.2171 18.8632 91.0064 19.0975 90.8501 19.4006C90.6939 19.6989 90.6158 20.0492 90.6158 20.4517V27H87.5902ZM107.943 27.206C107.247 27.206 106.627 27.0852 106.082 26.8438C105.538 26.5975 105.107 26.2353 104.79 25.7571C104.477 25.2741 104.321 24.6728 104.321 23.9531C104.321 23.3471 104.432 22.8381 104.655 22.4261C104.877 22.0142 105.18 21.6828 105.564 21.4318C105.947 21.1809 106.383 20.9915 106.871 20.8636C107.363 20.7358 107.879 20.6458 108.419 20.5938C109.054 20.5275 109.565 20.4659 109.953 20.4091C110.341 20.3475 110.623 20.2576 110.798 20.1392C110.973 20.0208 111.061 19.8456 111.061 19.6136V19.571C111.061 19.1212 110.919 18.7732 110.635 18.527C110.356 18.2808 109.958 18.1577 109.442 18.1577C108.897 18.1577 108.464 18.2784 108.142 18.5199C107.82 18.7566 107.607 19.0549 107.503 19.4148L104.705 19.1875C104.847 18.5246 105.126 17.9517 105.543 17.4688C105.959 16.9811 106.497 16.607 107.155 16.3466C107.818 16.0814 108.585 15.9489 109.456 15.9489C110.062 15.9489 110.642 16.0199 111.196 16.1619C111.755 16.304 112.25 16.5241 112.68 16.8224C113.116 17.1207 113.459 17.5043 113.71 17.973C113.961 18.437 114.087 18.9934 114.087 19.642V27H111.217V25.4872H111.132C110.957 25.8281 110.723 26.1288 110.429 26.3892C110.135 26.6449 109.783 26.8461 109.371 26.9929C108.959 27.1349 108.483 27.206 107.943 27.206ZM108.81 25.1179C109.255 25.1179 109.648 25.0303 109.989 24.8551C110.33 24.6752 110.597 24.4337 110.791 24.1307C110.985 23.8277 111.082 23.4844 111.082 23.1009V21.9432C110.988 22.0047 110.857 22.0616 110.692 22.1136C110.531 22.161 110.348 22.206 110.145 22.2486C109.941 22.2865 109.738 22.322 109.534 22.3551C109.33 22.3835 109.146 22.4096 108.98 22.4332C108.625 22.4853 108.315 22.5682 108.05 22.6818C107.785 22.7955 107.579 22.9493 107.432 23.1435C107.285 23.3329 107.212 23.5696 107.212 23.8537C107.212 24.2656 107.361 24.5805 107.659 24.7983C107.962 25.0114 108.346 25.1179 108.81 25.1179ZM118.46 20.6932V27H115.434V16.0909H118.317V18.0156H118.445C118.687 17.3812 119.092 16.8793 119.66 16.5099C120.228 16.1359 120.917 15.9489 121.727 15.9489C122.484 15.9489 123.145 16.1146 123.708 16.446C124.272 16.7775 124.71 17.2509 125.022 17.8665C125.335 18.4773 125.491 19.2064 125.491 20.054V27H122.465V20.5938C122.47 19.9261 122.299 19.4053 121.954 19.0312C121.608 18.6525 121.132 18.4631 120.526 18.4631C120.119 18.4631 119.759 18.5507 119.447 18.7259C119.139 18.901 118.897 19.1567 118.722 19.4929C118.552 19.8243 118.464 20.2244 118.46 20.6932ZM133.871 22.3551V16.0909H136.897V27H133.992V25.0185H133.878C133.632 25.6577 133.222 26.1714 132.65 26.5597C132.081 26.9479 131.388 27.142 130.569 27.142C129.839 27.142 129.198 26.9763 128.644 26.6449C128.09 26.3134 127.657 25.8423 127.344 25.2315C127.036 24.6207 126.88 23.8892 126.875 23.0369V16.0909H129.901V22.4972C129.906 23.1411 130.078 23.6501 130.419 24.0241C130.76 24.3982 131.217 24.5852 131.79 24.5852C132.155 24.5852 132.496 24.5024 132.813 24.3366C133.13 24.1662 133.386 23.9152 133.58 23.5838C133.779 23.2524 133.876 22.8428 133.871 22.3551ZM143.288 27.2131C142.166 27.2131 141.2 26.9858 140.391 26.5312C139.586 26.072 138.965 25.4233 138.53 24.5852C138.094 23.7424 137.876 22.7457 137.876 21.5952C137.876 20.473 138.094 19.4882 138.53 18.6406C138.965 17.7931 139.579 17.1326 140.369 16.6591C141.165 16.1856 142.098 15.9489 143.168 15.9489C143.887 15.9489 144.557 16.0649 145.178 16.2969C145.803 16.5241 146.347 16.8674 146.811 17.3267C147.28 17.786 147.644 18.3636 147.905 19.0597C148.165 19.7509 148.295 20.5606 148.295 21.4886V22.3196H139.084V20.4446H145.447C145.447 20.009 145.353 19.6231 145.163 19.2869C144.974 18.9508 144.711 18.688 144.375 18.4986C144.044 18.3045 143.658 18.2074 143.217 18.2074C142.758 18.2074 142.351 18.3139 141.996 18.527C141.645 18.7353 141.371 19.017 141.172 19.3722C140.973 19.7225 140.871 20.1132 140.866 20.544V22.3267C140.866 22.8665 140.966 23.3329 141.165 23.7259C141.368 24.1188 141.655 24.4219 142.024 24.6349C142.393 24.848 142.831 24.9545 143.338 24.9545C143.674 24.9545 143.982 24.9072 144.261 24.8125C144.541 24.7178 144.78 24.5758 144.979 24.3864C145.178 24.197 145.329 23.965 145.433 23.6903L148.232 23.875C148.089 24.5473 147.798 25.1345 147.358 25.6364C146.922 26.1335 146.359 26.5218 145.668 26.8011C144.981 27.0758 144.188 27.2131 143.288 27.2131ZM152.295 12.4545V27H149.27V12.4545H152.295Z" fill="#2E2E2E"/>
<path d="M158.5 0.849609C158.664 0.849609 158.821 0.914626 158.937 1.03027C159.052 1.14591 159.116 1.30328 159.116 1.4668V6.51074L161.692 3.93555C161.749 3.87678 161.817 3.8301 161.893 3.79785C161.968 3.76557 162.049 3.74872 162.131 3.74805C162.213 3.74739 162.294 3.76302 162.369 3.79395C162.445 3.82499 162.514 3.87078 162.572 3.92871C162.63 3.98655 162.676 4.0552 162.707 4.13086C162.738 4.20664 162.753 4.28826 162.752 4.37012C162.751 4.452 162.735 4.53318 162.702 4.6084C162.67 4.68349 162.623 4.75181 162.564 4.80859L162.563 4.80762L159.988 7.38379H165.033C165.197 7.38379 165.354 7.44787 165.47 7.56348C165.585 7.67912 165.65 7.83645 165.65 8C165.65 8.16355 165.585 8.32088 165.47 8.43652C165.354 8.55213 165.197 8.61621 165.033 8.61621H159.989L162.565 11.1943L162.567 11.1963C162.68 11.3126 162.742 11.4682 162.74 11.6299C162.739 11.7916 162.674 11.9463 162.56 12.0605C162.445 12.1747 162.291 12.2399 162.129 12.2412C161.967 12.2425 161.812 12.1797 161.695 12.0674L159.116 9.48828V14.5332C159.116 14.6967 159.052 14.8541 158.937 14.9697C158.821 15.0854 158.664 15.1504 158.5 15.1504C158.336 15.1504 158.179 15.0854 158.063 14.9697C157.948 14.8541 157.884 14.6967 157.884 14.5332V9.48828L155.306 12.0654L155.304 12.0674C155.187 12.1796 155.032 12.2417 154.87 12.2402C154.708 12.2388 154.554 12.174 154.439 12.0596C154.325 11.9452 154.26 11.7905 154.259 11.6289C154.258 11.4673 154.32 11.3115 154.433 11.1953L157.012 8.61621H151.967C151.803 8.61621 151.646 8.55213 151.53 8.43652C151.415 8.32088 151.35 8.16355 151.35 8C151.35 7.83645 151.415 7.67912 151.53 7.56348C151.646 7.44787 151.803 7.38379 151.967 7.38379H157.012L154.436 4.80566V4.80664C154.377 4.7498 154.33 4.68155 154.298 4.60645C154.266 4.5314 154.249 4.45078 154.248 4.36914C154.247 4.28727 154.263 4.20564 154.294 4.12988C154.325 4.05419 154.371 3.98557 154.429 3.92773C154.487 3.86998 154.555 3.82394 154.631 3.79297C154.707 3.76201 154.788 3.74633 154.87 3.74707C154.952 3.74782 155.033 3.76452 155.108 3.79688C155.183 3.82891 155.25 3.87552 155.307 3.93359L157.884 6.51074V1.4668C157.884 1.30328 157.948 1.14591 158.063 1.03027C158.179 0.914626 158.336 0.849609 158.5 0.849609Z" fill="black" stroke="black" stroke-width="0.3"/>
</svg>
