<svg width="1728" height="44" viewBox="0 0 1728 44" fill="none" xmlns="http://www.w3.org/2000/svg">
<mask id="mask0_9_147" style="mask-type:alpha" maskUnits="userSpaceOnUse" x="-96" y="0" width="1920" height="44">
<rect x="-96" width="1920" height="44" fill="url(#paint0_linear_9_147)"/>
</mask>
<g mask="url(#mask0_9_147)">
<g clip-path="url(#clip0_9_147)">
<path opacity="0.2" d="M-722.353 1V18.2656M-713.211 1V9.12501M-704.069 1V9.12501M-694.926 1V9.12501M-685.784 1V9.12501M-676.642 1V9.12501M-667.5 1V9.12501M-658.357 1V9.12501M-649.215 1V9.12501M-640.073 1V9.12501M-630.931 1V9.12501M-621.788 1V9.12501M-612.646 1V9.12501M-603.504 1V9.12501M-594.362 1V9.12501M-585.22 1V9.12501M-576.077 1V9.12501M-566.935 1V9.12501M-557.793 1V9.12501M-548.651 1V9.12501M-539.508 1V9.12501M-530.366 1V17.25M-521.224 1V9.12501M-512.082 1V9.12501M-502.94 1V9.12501M-493.797 1V9.12501M-484.655 1V9.12501M-475.513 1V9.12501M-466.371 1V9.12501M-457.228 1V9.12501M-448.086 1V9.12501M-438.944 1V9.12501M-429.802 1V9.12501M-420.659 1V9.12501M-411.517 1V9.12501M-402.375 1V9.12501M-393.233 1V9.12501M-384.091 1V9.12501M-374.948 1V9.12501M-365.806 1V9.12501M-356.664 1V9.12501M-347.522 1V9.12501M-338.379 1V17.25M-329.237 1V9.12501M-320.095 1V9.12501M-310.953 1V9.12501M-301.81 1V9.12501M-292.668 1V9.12501M-283.526 1V9.12501M-274.384 1V9.12501M-265.242 1V9.12501M-256.099 1V9.12501M-246.957 1V9.12501M-237.815 1V9.12501M-228.673 1V9.12501M-219.53 1V9.12501M-210.388 1V9.12501M-201.246 1V9.12501M-192.104 1V9.12501M-182.961 1V9.12501M-173.819 1V9.12501M-164.677 1V9.12501M-155.535 1V9.12501M-146.393 1V17.25M-137.25 1V9.12501M-128.108 1V9.12501M-118.966 1V9.12501M-109.824 1V9.12501M-100.681 1V9.12501M-91.5392 1V9.12501M-82.3969 1V9.12501M-73.2547 1V9.12501M-64.1125 1V9.12501M-54.9702 1V9.12501M-45.828 1V9.12501M-36.6858 1V9.12501M-27.5435 1V9.12501M-18.4013 1V9.12501M-9.25908 1V9.12501M-0.116855 1V9.12501M9.02538 1V9.12501M18.1676 1V9.12501M27.3098 1V9.12501M36.4521 1V9.12501M45.5943 1V17.25M54.7365 1V9.12501M63.8788 1V9.12501M73.021 1V9.12501M82.1632 1V9.12501M91.3054 1V9.12501M100.448 1V9.12501M109.59 1V9.12501M118.732 1V9.12501M127.874 1V9.12501M137.017 1V9.12501M146.159 1V9.12501M155.301 1V9.12501M164.443 1V9.12501M173.586 1V9.12501M182.728 1V9.12501M191.87 1V9.12501M201.012 1V9.12501M210.154 1V9.12501M219.297 1V9.12501M228.439 1V9.12501M237.581 1V17.25M246.723 1V9.12501M255.866 1V9.12501M265.008 1V9.12501M274.15 1V9.12501M283.292 1V9.12501M292.435 1V9.12501M301.577 1V9.12501M310.719 1V9.12501M319.861 1V9.12501M329.003 1V9.12501M338.146 1V9.12501M347.288 1V9.12501M356.43 1V9.12501M365.572 1V9.12501M374.715 1V9.12501M383.857 1V9.12501M392.999 1V9.12501M402.141 1V9.12501M411.283 1V9.12501M420.426 1V9.12501M429.568 1V17.25M438.71 1V9.12501M447.852 1V9.12501M456.995 1V9.12501M466.137 1V9.12501M475.279 1V9.12501M484.421 1V9.12501M493.564 1V9.12501M502.706 1V9.12501M511.848 1V9.12501M520.99 1V9.12501M530.132 1V9.12501M539.275 1V9.12501M548.417 1V9.12501M557.559 1V9.12501M566.701 1V9.12501M575.844 1V9.12501M584.986 1V9.12501M594.128 1V9.12501M603.27 1V9.12501M612.413 1V9.12501M621.555 1V17.25M630.697 1V9.12501M639.839 1V9.12501M648.981 1V9.12501M658.124 1V9.12501M667.266 1V9.12501M676.408 1V9.12501M685.55 1V9.12501M694.693 1V9.12501M703.835 1V9.12501M712.977 1V9.12501M722.119 1V9.12501M731.262 1V9.12501M740.404 1V9.12501M749.546 1V9.12501M758.688 1V9.12501M767.83 1V9.12501M776.973 1V9.12501M786.115 1V9.12501M795.257 1V9.12501M804.399 1V9.12501M813.542 1V17.25M822.684 1V9.12501M831.826 1V9.12501M840.968 1V9.12501M850.111 1V9.12501M859.253 1V9.12501M868.395 1V9.12501M877.537 1V9.12501M886.679 1V9.12501M895.822 1V9.12501M904.964 1V9.12501M914.106 1V9.12501M923.248 1V9.12501M932.391 1V9.12501M941.533 1V9.12501M950.675 1V9.12501M959.817 1V9.12501M968.96 1V9.12501M978.102 1V9.12501M987.244 1V9.12501M996.386 1V9.12501M1005.53 1V17.25M1014.67 1V9.12501M1023.81 1V9.12501M1032.96 1V9.12501M1042.1 1V9.12501M1051.24 1V9.12501M1060.38 1V9.12501M1069.52 1V9.12501M1078.67 1V9.12501M1087.81 1V9.12501M1096.95 1V9.12501M1106.09 1V9.12501M1115.24 1V9.12501M1124.38 1V9.12501M1133.52 1V9.12501M1142.66 1V9.12501M1151.8 1V9.12501M1160.95 1V9.12501M1170.09 1V9.12501M1179.23 1V9.12501M1188.37 1V9.12501M1197.52 1V17.25M1206.66 1V9.12501M1215.8 1V9.12501M1224.94 1V9.12501M1234.08 1V9.12501M1243.23 1V9.12501M1252.37 1V9.12501M1261.51 1V9.12501M1270.65 1V9.12501M1279.8 1V9.12501M1288.94 1V9.12501M1298.08 1V9.12501M1307.22 1V9.12501M1316.36 1V9.12501M1325.51 1V9.12501M1334.65 1V9.12501M1343.79 1V9.12501M1352.93 1V9.12501M1362.08 1V9.12501M1371.22 1V9.12501M1380.36 1V9.12501M1389.5 1V17.25M1398.64 1V9.12501M1407.79 1V9.12501M1416.93 1V9.12501M1426.07 1V9.12501M1435.21 1V9.12501M1444.36 1V9.12501M1453.5 1V9.12501M1462.64 1V9.12501M1471.78 1V9.12501M1480.92 1V9.12501M1490.07 1V9.12501M1499.21 1V9.12501M1508.35 1V9.12501M1517.49 1V9.12501M1526.64 1V9.12501M1535.78 1V9.12501M1544.92 1V9.12501M1554.06 1V9.12501M1563.2 1V9.12501M1572.35 1V9.12501M1581.49 1V17.25" stroke="#111112" stroke-width="1.01571"/>
<path opacity="0.4" d="M-724.875 38.7051C-725.41 38.7051 -725.868 38.57 -726.252 38.2988C-726.633 38.0266 -726.925 37.6336 -727.131 37.1207C-727.334 36.6058 -727.436 35.9852 -727.436 35.2611C-727.434 34.5359 -727.331 33.9195 -727.128 33.4106C-726.922 32.8998 -726.628 32.5108 -726.248 32.2426C-725.865 31.9735 -725.407 31.8394 -724.875 31.8394C-724.342 31.8394 -723.885 31.9735 -723.502 32.2416C-723.118 32.5108 -722.825 32.8998 -722.621 33.4096C-722.416 33.9215 -722.313 34.538 -722.313 35.2611C-722.313 35.9883 -722.416 36.6088 -722.621 37.1238C-722.824 37.6366 -723.119 38.0277 -723.502 38.2988C-723.883 38.57 -724.34 38.7051 -724.875 38.7051ZM-724.875 37.6895C-724.459 37.6895 -724.132 37.4843 -723.891 37.075C-723.648 36.6637 -723.527 36.0594 -723.527 35.2611C-723.527 34.733 -723.582 34.2891 -723.693 33.9306C-723.804 33.5711 -723.959 33.3009 -724.16 33.1181C-724.354 32.9373 -724.61 32.8386 -724.875 32.8429C-725.288 32.8429 -725.615 33.048 -725.855 33.4594C-726.095 33.8687 -726.217 34.4689 -726.219 35.2611C-726.221 35.7913 -726.168 36.2361 -726.06 36.5977C-725.949 36.9592 -725.793 37.2324 -725.592 37.4163C-725.391 37.598 -725.151 37.6895 -724.875 37.6895ZM-718.896 31.9309V38.5781H-720.1V33.1019H-720.14L-721.694 34.0952V32.9922L-720.042 31.9298L-718.896 31.9309ZM-533.53 38.7051C-534.066 38.7051 -534.524 38.57 -534.907 38.2988C-535.288 38.0266 -535.581 37.6336 -535.787 37.1207C-535.991 36.6058 -536.092 35.9852 -536.092 35.2611C-536.09 34.5359 -535.988 33.9195 -535.783 33.4106C-535.578 32.8998 -535.285 32.5108 -534.904 32.2426C-534.521 31.9735 -534.063 31.8394 -533.53 31.8394C-532.998 31.8394 -532.541 31.9735 -532.157 32.2416C-531.774 32.5108 -531.481 32.8998 -531.277 33.4096C-531.072 33.9215 -530.97 34.538 -530.97 35.2611C-530.97 35.9883 -531.072 36.6088 -531.277 37.1238C-531.481 37.6366 -531.774 38.0277 -532.157 38.2988C-532.538 38.57 -532.996 38.7051 -533.53 38.7051ZM-533.53 37.6895C-533.115 37.6895 -532.787 37.4843 -532.547 37.075C-532.304 36.6637 -532.183 36.0594 -532.183 35.2611C-532.183 34.733 -532.238 34.2891 -532.349 33.9306C-532.46 33.5711 -532.615 33.3009 -532.816 33.1181C-533.01 32.9375 -533.266 32.8389 -533.53 32.8429C-533.944 32.8429 -534.271 33.048 -534.512 33.4594C-534.751 33.8687 -534.872 34.4689 -534.874 35.2611C-534.877 35.7913 -534.823 36.2361 -534.716 36.5977C-534.605 36.9592 -534.45 37.2324 -534.249 37.4163C-534.046 37.598 -533.808 37.6895 -533.53 37.6895ZM-530.256 38.5781V37.7088L-527.948 35.4459C-527.727 35.2225 -527.543 35.0245 -527.396 34.8518C-527.249 34.6791 -527.139 34.5105 -527.065 34.3491C-526.992 34.1866 -526.954 34.0139 -526.954 33.8291C-526.949 33.6396 -526.998 33.4526 -527.097 33.2908C-527.193 33.139 -527.329 33.0172 -527.49 32.9394C-527.668 32.8553 -527.862 32.8135 -528.058 32.8175C-528.277 32.8175 -528.469 32.8622 -528.633 32.9526C-528.795 33.0391 -528.928 33.1712 -529.016 33.3324C-529.109 33.5143 -529.155 33.7164 -529.149 33.9205H-530.295C-530.295 33.498 -530.199 33.1313 -530.007 32.8195C-529.814 32.5087 -529.539 32.2582 -529.211 32.0964C-528.847 31.9199 -528.447 31.8318 -528.042 31.8394C-527.596 31.8394 -527.205 31.9227 -526.867 32.0893C-526.529 32.2559 -526.267 32.4844 -526.081 32.7738C-525.893 33.0643 -525.799 33.3954 -525.799 33.7681C-525.799 34.0159 -525.847 34.2607 -525.941 34.5014C-526.037 34.7411 -526.204 35.0072 -526.445 35.2997C-526.759 35.6725 -527.093 36.0269 -527.448 36.361L-528.594 37.527V37.5716H-525.699V38.5781H-530.256ZM-341.683 38.7051C-342.217 38.7051 -342.676 38.57 -343.059 38.2988C-343.44 38.0266 -343.733 37.6336 -343.939 37.1207C-344.142 36.6058 -344.244 35.9852 -344.244 35.2611C-344.242 34.5359 -344.139 33.9195 -343.936 33.4106C-343.73 32.8998 -343.436 32.5108 -343.055 32.2426C-342.672 31.9735 -342.215 31.8394 -341.683 31.8394C-341.149 31.8394 -340.692 31.9735 -340.309 32.2416C-339.926 32.5108 -339.633 32.8998 -339.43 33.4096C-339.223 33.9215 -339.121 34.538 -339.121 35.2611C-339.121 35.9883 -339.223 36.6088 -339.43 37.1238C-339.633 37.6366 -339.926 38.0277 -340.309 38.2988C-340.69 38.57 -341.147 38.7051 -341.683 38.7051ZM-341.683 37.6895C-341.266 37.6895 -340.939 37.4843 -340.698 37.075C-340.457 36.6637 -340.335 36.0594 -340.335 35.2611C-340.335 34.733 -340.391 34.2891 -340.5 33.9306C-340.611 33.5711 -340.766 33.3009 -340.968 33.1181C-341.161 32.9375 -341.418 32.8388 -341.683 32.8429C-342.096 32.8429 -342.422 33.048 -342.663 33.4594C-342.903 33.8687 -343.025 34.4689 -343.027 35.2611C-343.029 35.7913 -342.976 36.2361 -342.867 36.5977C-342.756 36.9592 -342.601 37.2324 -342.4 37.4163C-342.199 37.598 -341.959 37.6895 -341.683 37.6895ZM-336.022 38.6695C-336.489 38.6695 -336.904 38.5883 -337.268 38.4288C-337.608 38.2857 -337.904 38.0551 -338.125 37.7605C-338.336 37.4728 -338.453 37.1269 -338.46 36.7703H-337.239C-337.228 36.9501 -337.168 37.1065 -337.061 37.2405C-336.952 37.3726 -336.808 37.4752 -336.629 37.5493C-336.449 37.6224 -336.248 37.659 -336.025 37.659C-335.787 37.659 -335.576 37.6184 -335.392 37.5371C-335.208 37.4518 -335.064 37.334 -334.96 37.1857C-334.855 37.0345 -334.802 36.8536 -334.808 36.6698C-334.802 36.4804 -334.856 36.294 -334.963 36.1376C-335.079 35.9758 -335.239 35.8507 -335.424 35.777C-335.653 35.6848 -335.898 35.6406 -336.145 35.647H-336.733V34.7187H-336.145C-335.913 34.7187 -335.711 34.6781 -335.538 34.5989C-335.372 34.5265 -335.229 34.4094 -335.126 34.2607C-335.025 34.1101 -334.974 33.9319 -334.979 33.7509C-334.973 33.5788 -335.017 33.4086 -335.106 33.2613C-335.192 33.1194 -335.317 33.0054 -335.466 32.9333C-335.635 32.8521 -335.821 32.8121 -336.008 32.8165C-336.212 32.8165 -336.4 32.853 -336.573 32.9272C-336.738 32.9942 -336.882 33.1027 -336.993 33.242C-337.099 33.3797 -337.159 33.5483 -337.161 33.7224H-338.32C-338.318 33.3701 -338.206 33.0274 -337.998 32.7423C-337.791 32.458 -337.514 32.2376 -337.167 32.0801C-336.801 31.9156 -336.404 31.8335 -336.002 31.8394C-335.558 31.8394 -335.173 31.9227 -334.846 32.0893C-334.517 32.2538 -334.263 32.4752 -334.083 32.7545C-333.904 33.0338 -333.814 33.3426 -333.814 33.6798C-333.812 34.0545 -333.922 34.3684 -334.145 34.6212C-334.366 34.8752 -334.655 35.0397 -335.015 35.1179V35.1697C-334.548 35.2347 -334.189 35.4084 -333.94 35.6897C-333.689 35.968 -333.565 36.3153 -333.567 36.7317C-333.567 37.1034 -333.673 37.4366 -333.885 37.7311C-334.109 38.0336 -334.409 38.271 -334.755 38.4187C-335.154 38.5916 -335.586 38.6778 -336.022 38.6695ZM-149.762 38.7051C-150.297 38.7051 -150.755 38.57 -151.139 38.2988C-151.52 38.0266 -151.813 37.6336 -152.019 37.1207C-152.222 36.6058 -152.324 35.9852 -152.324 35.2611C-152.322 34.5359 -152.219 33.9195 -152.016 33.4106C-151.81 32.8998 -151.516 32.5108 -151.135 32.2426C-150.752 31.9735 -150.295 31.8394 -149.762 31.8394C-149.23 31.8394 -148.772 31.9735 -148.39 32.2416C-148.006 32.5108 -147.713 32.8998 -147.509 33.4096C-147.304 33.9215 -147.201 34.538 -147.201 35.2611C-147.201 35.9883 -147.304 36.6088 -147.509 37.1238C-147.713 37.6366 -148.006 38.0277 -148.39 38.2988C-148.77 38.57 -149.228 38.7051 -149.762 38.7051ZM-149.762 37.6895C-149.346 37.6895 -149.019 37.4843 -148.779 37.075C-148.536 36.6637 -148.415 36.0594 -148.415 35.2611C-148.415 34.733 -148.47 34.2891 -148.58 33.9306C-148.691 33.5711 -148.847 33.3009 -149.048 33.1181C-149.241 32.9375 -149.497 32.8389 -149.762 32.8429C-150.175 32.8429 -150.502 33.048 -150.743 33.4594C-150.983 33.8687 -151.104 34.4689 -151.107 35.2611C-151.109 35.7913 -151.056 36.2361 -150.947 36.5977C-150.837 36.9592 -150.681 37.2324 -150.48 37.4163C-150.279 37.598 -150.039 37.6895 -149.762 37.6895ZM-146.608 37.3441V36.3874L-143.787 31.9298H-142.988V33.2938H-143.475L-145.375 36.3031V36.3539H-141.436V37.3441H-146.608ZM-143.436 38.5781V37.0527L-143.423 36.6241V31.9298H-142.287V38.5781H-143.436ZM42.3763 38.7051C41.842 38.7051 41.3829 38.57 40.9999 38.2988C40.619 38.0266 40.3254 37.6336 40.1202 37.1207C39.9161 36.6058 39.8145 35.9852 39.8145 35.2611C39.8165 34.5359 39.9201 33.9195 40.1233 33.4106C40.3285 32.8998 40.622 32.5108 41.0029 32.2426C41.3859 31.9735 41.844 31.8394 42.3763 31.8394C42.9086 31.8394 43.3668 31.9735 43.7497 32.2416C44.1327 32.5108 44.4262 32.8998 44.6294 33.4096C44.8345 33.9215 44.9382 34.538 44.9382 35.2611C44.9382 35.9883 44.8345 36.6088 44.6294 37.1238C44.4262 37.6366 44.1327 38.0277 43.7497 38.2988C43.3688 38.57 42.9106 38.7051 42.3763 38.7051ZM42.3763 37.6895C42.7917 37.6895 43.1199 37.4843 43.3596 37.075C43.6024 36.6637 43.7233 36.0594 43.7233 35.2611C43.7233 34.733 43.6685 34.2891 43.5577 33.9306C43.448 33.5711 43.2916 33.3009 43.0904 33.1181C42.897 32.9374 42.641 32.8387 42.3763 32.8429C41.9629 32.8429 41.6358 33.048 41.3961 33.4594C41.1553 33.8687 41.0344 34.4689 41.0324 35.2611C41.0303 35.7913 41.0832 36.2361 41.1909 36.5977C41.3016 36.9592 41.457 37.2324 41.6592 37.4163C41.8603 37.598 42.099 37.6895 42.3763 37.6895ZM47.9622 38.6695C47.5295 38.6695 47.1425 38.5883 46.8002 38.4258C46.4746 38.2751 46.1938 38.0424 45.9855 37.7504C45.7853 37.462 45.6744 37.1212 45.6665 36.7703H46.8357C46.8439 36.9004 46.8796 37.0273 46.9406 37.1425C47.0015 37.2577 47.0862 37.3586 47.1892 37.4386C47.4036 37.6102 47.6616 37.6955 47.9622 37.6955C48.183 37.6994 48.4007 37.6432 48.592 37.533C48.7753 37.4251 48.9257 37.2692 49.0268 37.0821C49.1335 36.8891 49.1853 36.6698 49.1832 36.422C49.1898 36.189 49.1347 35.9585 49.0237 35.7537C48.9201 35.5635 48.7662 35.4054 48.5788 35.2966C48.3821 35.1819 48.1575 35.1235 47.9297 35.128C47.7288 35.126 47.5293 35.1633 47.3426 35.2377C47.1496 35.3139 46.9973 35.4134 46.8845 35.5363L45.7965 35.3586L46.144 31.9309H50.001V32.9363H47.1404L46.9495 34.6995H46.9881C47.112 34.5542 47.2857 34.4344 47.5112 34.3389C47.745 34.2396 47.9968 34.1898 48.2507 34.1927C48.6236 34.1844 48.9914 34.2795 49.3136 34.4674C49.6357 34.6552 49.8997 34.9285 50.0761 35.257C50.2579 35.5881 50.3483 35.968 50.3483 36.3945C50.3483 36.8333 50.2468 37.2243 50.0436 37.5686C49.8429 37.9103 49.5519 38.19 49.2025 38.377C48.8205 38.5778 48.3937 38.6785 47.9622 38.6695ZM234.292 38.7051C233.757 38.7051 233.299 38.57 232.916 38.2988C232.535 38.0266 232.241 37.6336 232.035 37.1207C231.832 36.6058 231.73 35.9852 231.73 35.2611C231.732 34.5359 231.835 33.9195 232.039 33.4106C232.244 32.8998 232.538 32.5108 232.919 32.2426C233.302 31.9735 233.759 31.8394 234.292 31.8394C234.824 31.8394 235.281 31.9735 235.665 32.2416C236.048 32.5108 236.341 32.8998 236.545 33.4096C236.75 33.9215 236.853 34.538 236.853 35.2611C236.853 35.9883 236.75 36.6088 236.545 37.1238C236.341 37.6366 236.048 38.0277 235.665 38.2988C235.284 38.57 234.826 38.7051 234.292 38.7051ZM234.292 37.6895C234.708 37.6895 235.036 37.4843 235.275 37.075C235.518 36.6637 235.639 36.0594 235.639 35.2611C235.639 34.733 235.584 34.2891 235.473 33.9306C235.363 33.5711 235.207 33.3009 235.006 33.1181C234.813 32.9375 234.557 32.8389 234.292 32.8429C233.879 32.8429 233.552 33.048 233.311 33.4594C233.071 33.8687 232.95 34.4689 232.947 35.2611C232.945 35.7913 232.999 36.2361 233.107 36.5977C233.217 36.9592 233.373 37.2324 233.574 37.4163C233.775 37.598 234.015 37.6895 234.292 37.6895ZM240.001 38.6695C239.683 38.6671 239.368 38.6108 239.069 38.503C238.76 38.3885 238.48 38.2055 238.252 37.9677C238.009 37.7189 237.816 37.3888 237.674 36.9775C237.53 36.5641 237.46 36.0533 237.462 35.4429C237.462 34.8741 237.523 34.3663 237.644 33.9194C237.747 33.5142 237.924 33.1316 238.166 32.7911C238.394 32.4813 238.668 32.2457 238.988 32.0832C239.311 31.9207 239.671 31.8394 240.069 31.8394C240.487 31.8394 240.857 31.9217 241.179 32.0862C241.504 32.2508 241.766 32.4752 241.965 32.7616C242.164 33.045 242.287 33.3649 242.335 33.7224H241.151C241.099 33.4824 240.967 33.2671 240.777 33.112C240.591 32.9587 240.355 32.8815 240.069 32.8815C239.608 32.8815 239.253 33.0816 239.004 33.4817C238.758 33.8819 238.634 34.4323 238.631 35.1311H238.676C238.783 34.9402 238.92 34.7766 239.089 34.6405C239.446 34.3613 239.886 34.2104 240.339 34.212C240.705 34.2062 241.065 34.301 241.38 34.486C241.696 34.671 241.955 34.9391 242.128 35.2611C242.31 35.5861 242.399 35.9578 242.397 36.3783C242.405 36.7907 242.302 37.1977 242.099 37.5564C241.897 37.9017 241.617 38.1749 241.257 38.374C240.898 38.573 240.479 38.6726 240.001 38.6695ZM239.995 37.6945C240.23 37.6945 240.442 37.6377 240.628 37.5229C240.814 37.4081 240.961 37.2538 241.07 37.0588C241.179 36.8579 241.233 36.6321 241.228 36.4037C241.233 36.1785 241.18 35.9559 241.073 35.7577C240.973 35.5689 240.823 35.4107 240.641 35.2997C240.451 35.1856 240.233 35.1272 240.011 35.1311C239.845 35.1294 239.68 35.1623 239.528 35.2277C239.375 35.2931 239.238 35.3896 239.124 35.5109C238.891 35.7535 238.761 36.0766 238.761 36.4128C238.763 36.6444 238.817 36.8577 238.923 37.0527C239.03 37.2477 239.175 37.403 239.362 37.5198C239.548 37.6366 239.759 37.6945 239.995 37.6945ZM428.176 38.7051C427.638 38.7051 427.181 38.57 426.795 38.2988C426.419 38.0266 426.125 37.6336 425.921 37.1207C425.708 36.6058 425.606 35.9852 425.606 35.2611C425.617 34.5359 425.718 33.9195 425.921 33.4106C426.125 32.8998 426.419 32.5108 426.795 32.2426C427.181 31.9735 427.638 31.8394 428.176 31.8394C428.705 31.8394 429.162 31.9735 429.548 32.2416C429.934 32.5108 430.218 32.8998 430.421 33.4096C430.635 33.9215 430.736 34.538 430.736 35.2611C430.736 35.9883 430.635 36.6088 430.421 37.1238C430.218 37.6366 429.934 38.0277 429.548 38.2988C429.162 38.57 428.705 38.7051 428.176 38.7051ZM428.176 37.6895C428.593 37.6895 428.918 37.4843 429.151 37.075C429.395 36.6637 429.517 36.0594 429.517 35.2611C429.517 34.733 429.467 34.2891 429.355 33.9306C429.243 33.5711 429.091 33.3009 428.887 33.1181C428.684 32.9353 428.451 32.8429 428.176 32.8429C427.76 32.8429 427.435 33.048 427.191 33.4594C426.947 33.8687 426.836 34.4689 426.825 35.2611C426.825 35.7913 426.876 36.2361 426.988 36.5977C427.1 36.9592 427.252 37.2324 427.455 37.4163C427.658 37.598 427.892 37.6895 428.176 37.6895ZM431.508 38.5781L434.342 32.982V32.9363H431.061V31.9309H435.582V32.9597L432.758 38.5781H431.508ZM618.274 38.7051C617.746 38.7051 617.289 38.57 616.903 38.2988C616.517 38.0266 616.232 37.6336 616.019 37.1207C615.816 36.6058 615.714 35.9852 615.714 35.2611C615.724 34.5359 615.826 33.9195 616.029 33.4106C616.232 32.8998 616.527 32.5108 616.903 32.2426C617.289 31.9735 617.746 31.8394 618.274 31.8394C618.812 31.8394 619.269 31.9735 619.655 32.2416C620.031 32.5108 620.326 32.8998 620.529 33.4096C620.742 33.9215 620.844 34.538 620.844 35.2611C620.844 35.9883 620.742 36.6088 620.529 37.1238C620.326 37.6366 620.031 38.0277 619.655 38.2988C619.269 38.57 618.812 38.7051 618.274 38.7051ZM618.274 37.6895C618.69 37.6895 619.026 37.4843 619.259 37.075C619.503 36.6637 619.625 36.0594 619.625 35.2611C619.625 34.733 619.574 34.2891 619.462 33.9306C619.351 33.5711 619.198 33.3009 618.995 33.1181C618.792 32.9353 618.558 32.8429 618.274 32.8429C617.868 32.8429 617.542 33.048 617.299 33.4594C617.055 33.8687 616.933 34.4689 616.933 35.2611C616.933 35.7913 616.984 36.2361 617.095 36.5977C617.207 36.9592 617.36 37.2324 617.563 37.4163C617.766 37.598 618 37.6895 618.274 37.6895ZM623.922 38.6695C623.434 38.6695 623.008 38.5883 622.632 38.4258C622.256 38.2633 621.971 38.0419 621.758 37.7605C621.545 37.4762 621.443 37.1552 621.443 36.7957C621.441 36.5322 621.501 36.272 621.62 36.0365C621.738 35.8011 621.911 35.5973 622.124 35.4419C622.337 35.2845 622.571 35.1839 622.835 35.1402V35.0955C622.503 35.0272 622.207 34.8415 622.002 34.5725C621.791 34.3009 621.68 33.9654 621.687 33.6219C621.687 33.2796 621.778 32.9749 621.971 32.7058C622.164 32.4377 622.428 32.2264 622.764 32.073C623.099 31.9176 623.485 31.8394 623.922 31.8394C624.338 31.8394 624.724 31.9176 625.059 32.073C625.395 32.2264 625.659 32.4387 625.852 32.7058C626.045 32.9749 626.136 33.2796 626.136 33.6219C626.136 33.9804 626.035 34.2983 625.821 34.5725C625.608 34.8457 625.334 35.0194 624.999 35.0955V35.1402C625.263 35.1839 625.496 35.2844 625.699 35.4429C625.913 35.5983 626.075 35.7933 626.197 36.0269C626.329 36.2605 626.39 36.5174 626.39 36.7957C626.39 37.1552 626.278 37.4762 626.065 37.7605C625.862 38.0419 625.567 38.2633 625.191 38.4258C624.826 38.5883 624.399 38.6695 623.922 38.6695ZM623.922 37.7402C624.165 37.7402 624.379 37.6986 624.562 37.6143C624.74 37.5387 624.892 37.4123 624.999 37.2507C625.101 37.0903 625.154 36.903 625.151 36.7124C625.151 36.4991 625.09 36.3123 624.988 36.1498C624.878 35.9856 624.728 35.8527 624.552 35.7638C624.355 35.6694 624.14 35.6218 623.922 35.6247C623.678 35.6247 623.465 35.6704 623.282 35.7638C623.102 35.8525 622.949 35.9853 622.835 36.1498C622.733 36.3123 622.682 36.4991 622.682 36.7114C622.682 36.9145 622.733 37.0943 622.835 37.2497C622.936 37.4041 623.079 37.5239 623.261 37.6113C623.444 37.6976 623.668 37.7402 623.922 37.7402ZM623.922 34.7127C624.125 34.7127 624.297 34.672 624.46 34.5887C624.614 34.5063 624.743 34.3832 624.833 34.2329C624.922 34.0825 624.969 33.9106 624.968 33.7356C624.969 33.56 624.923 33.3873 624.836 33.2349C624.746 33.0895 624.615 32.9734 624.46 32.9008C624.293 32.8178 624.108 32.7767 623.922 32.7809C623.708 32.7809 623.526 32.8216 623.363 32.9008C623.208 32.9737 623.077 33.0901 622.987 33.2359C622.904 33.3886 622.862 33.5606 622.865 33.7346C622.865 33.9276 622.906 34.0972 622.997 34.2445C623.089 34.3897 623.211 34.5045 623.363 34.5898C623.526 34.671 623.708 34.7127 623.922 34.7127ZM810.25 38.7051C809.722 38.7051 809.255 38.57 808.879 38.2988C808.493 38.0266 808.199 37.6336 807.995 37.1207C807.792 36.6058 807.691 35.9852 807.691 35.2611C807.691 34.5359 807.792 33.9195 807.995 33.4106C808.209 32.8998 808.493 32.5108 808.879 32.2426C809.265 31.9735 809.722 31.8394 810.25 31.8394C810.789 31.8394 811.246 31.9735 811.622 32.2416C812.008 32.5108 812.302 32.8998 812.506 33.4096C812.709 33.9215 812.81 34.538 812.81 35.2611C812.81 35.9883 812.709 36.6088 812.506 37.1238C812.302 37.6366 812.008 38.0277 811.622 38.2988C811.246 38.57 810.789 38.7051 810.25 38.7051ZM810.25 37.6895C810.667 37.6895 810.992 37.4843 811.236 37.075C811.48 36.6637 811.601 36.0594 811.601 35.2611C811.601 34.733 811.541 34.2891 811.429 33.9306C811.327 33.5711 811.165 33.3009 810.962 33.1181C810.77 32.9363 810.515 32.8374 810.25 32.8429C809.834 32.8429 809.509 33.048 809.275 33.4594C809.032 33.8687 808.91 34.4689 808.91 35.2611C808.91 35.7913 808.96 36.2361 809.072 36.5977C809.174 36.9592 809.336 37.2324 809.54 37.4163C809.733 37.598 809.976 37.6895 810.25 37.6895ZM815.837 31.8394C816.152 31.8415 816.467 31.8984 816.762 32.008C817.067 32.1167 817.341 32.2944 817.585 32.5402C817.828 32.785 818.021 33.113 818.164 33.5244C818.306 33.9357 818.377 34.4435 818.377 35.0498C818.384 35.5662 818.322 36.0811 818.194 36.5814C818.072 37.0293 817.9 37.4081 817.666 37.7189C817.443 38.0277 817.168 38.2633 816.843 38.4258C816.509 38.5919 816.14 38.6755 815.766 38.6695C815.35 38.6695 814.974 38.5863 814.649 38.4227C814.336 38.266 814.067 38.0339 813.867 37.7473C813.664 37.462 813.542 37.1349 813.501 36.7673H814.69C814.75 37.0313 814.872 37.2405 815.055 37.397C815.248 37.5493 815.482 37.6275 815.766 37.6275C816.223 37.6275 816.579 37.4274 816.833 37.0263C817.077 36.6261 817.209 36.0705 817.209 35.3586H817.158C817.057 35.5485 816.914 35.713 816.752 35.8512C816.579 35.9883 816.386 36.0929 816.173 36.166C815.957 36.2401 815.73 36.2775 815.502 36.2767C815.106 36.2767 814.761 36.1833 814.446 35.9974C814.134 35.8132 813.878 35.5487 813.704 35.2316C813.525 34.8882 813.435 34.5057 813.44 34.1185C813.44 33.6848 813.531 33.2969 813.735 32.9526C813.938 32.6073 814.212 32.333 814.578 32.135C814.933 31.9339 815.35 31.8344 815.837 31.8394ZM815.837 32.8134C815.604 32.8134 815.391 32.8703 815.208 32.9861C815.015 33.0978 814.872 33.2512 814.761 33.4462C814.659 33.6391 814.608 33.8544 814.608 34.0921C814.608 34.3277 814.659 34.542 814.761 34.735C814.864 34.9275 815.018 35.0879 815.206 35.1985C815.394 35.309 815.609 35.3655 815.827 35.3616C815.993 35.3628 816.157 35.3297 816.309 35.2643C816.461 35.1989 816.598 35.1027 816.711 34.9818C816.823 34.8599 816.914 34.7228 816.975 34.5695C817.046 34.4161 817.077 34.2536 817.077 34.082C817.079 33.8625 817.023 33.6462 816.917 33.4545C816.81 33.2627 816.655 33.102 816.467 32.9881C816.279 32.869 816.06 32.8082 815.837 32.8134ZM1003.25 31.9298V38.5781H1002.04V33.1019H1002.01L1000.46 34.0952V32.9922L1002.11 31.9298H1003.25ZM1007.03 38.7041C1006.5 38.7041 1006.04 38.569 1005.66 38.2988C1005.27 38.0266 1004.98 37.6336 1004.78 37.1207C1004.57 36.6058 1004.47 35.9852 1004.47 35.2611C1004.47 34.5359 1004.57 33.9195 1004.78 33.4106C1004.99 32.8998 1005.27 32.5108 1005.66 32.2426C1006.05 31.9735 1006.5 31.8394 1007.03 31.8394C1007.57 31.8394 1008.03 31.9735 1008.4 32.2416C1008.79 32.5108 1009.08 32.8998 1009.29 33.4096C1009.49 33.9215 1009.59 34.538 1009.59 35.2611C1009.59 35.9883 1009.49 36.6088 1009.29 37.1238C1009.08 37.6366 1008.79 38.0277 1008.4 38.2988C1008.03 38.57 1007.57 38.7041 1007.03 38.7041ZM1007.03 37.6884C1007.45 37.6884 1007.77 37.4843 1008.02 37.075C1008.26 36.6637 1008.38 36.0594 1008.38 35.2611C1008.38 34.733 1008.32 34.2891 1008.22 33.9306C1008.11 33.5711 1007.95 33.3009 1007.74 33.1181C1007.55 32.9363 1007.3 32.8374 1007.03 32.8429C1006.62 32.8429 1006.29 33.048 1006.06 33.4594C1005.81 33.8687 1005.69 34.4689 1005.69 35.2611C1005.69 35.7913 1005.74 36.2361 1005.85 36.5977C1005.96 36.9592 1006.12 37.2324 1006.32 37.4163C1006.51 37.598 1006.76 37.6884 1007.03 37.6884ZM1196.6 31.9298V38.5781H1195.39V33.1019H1195.36L1193.8 34.0952V32.9922L1195.45 31.9298H1196.6ZM1200.62 31.9298V38.5781H1199.43V33.1019H1199.38L1197.83 34.0952V32.9922L1199.49 31.9298H1200.62ZM1387.44 31.9298V38.5781H1386.23V33.1019H1386.19L1384.64 34.0952V32.9922L1386.29 31.9298H1387.44ZM1388.76 38.5781V37.7088L1391.07 35.4459C1391.29 35.2225 1391.47 35.0245 1391.61 34.8518C1391.77 34.6791 1391.88 34.5105 1391.95 34.3491C1392.02 34.1866 1392.06 34.0139 1392.06 33.8291C1392.07 33.6399 1392.02 33.4534 1391.92 33.2908C1391.82 33.1389 1391.69 33.0171 1391.52 32.9394C1391.35 32.8547 1391.15 32.813 1390.95 32.8175C1390.74 32.8175 1390.55 32.8622 1390.39 32.9526C1390.22 33.0367 1390.09 33.1693 1390 33.3324C1389.91 33.4969 1389.87 33.693 1389.87 33.9205H1388.72C1388.72 33.498 1388.82 33.1313 1389 32.8195C1389.2 32.5077 1389.47 32.267 1389.81 32.0964C1390.14 31.9248 1390.54 31.8394 1390.97 31.8394C1391.42 31.8394 1391.81 31.9227 1392.15 32.0893C1392.49 32.2559 1392.75 32.4844 1392.94 32.7738C1393.12 33.0643 1393.22 33.3954 1393.22 33.7681C1393.22 34.0159 1393.17 34.2607 1393.08 34.5014C1392.98 34.7411 1392.81 35.0072 1392.57 35.2997C1392.34 35.5922 1392 35.9456 1391.56 36.361L1390.43 37.527V37.5716H1393.32V38.5781H1388.76ZM1579.28 31.9298V38.5781H1578.08V33.1019H1578.05L1576.49 34.0952V32.9922L1578.14 31.9298H1579.28ZM1582.99 38.6695C1582.52 38.6695 1582.11 38.5883 1581.74 38.4288C1581.41 38.2832 1581.11 38.053 1580.89 37.7605C1580.68 37.4742 1580.56 37.1275 1580.55 36.7703H1581.77C1581.78 36.9501 1581.84 37.1065 1581.96 37.2405C1582.07 37.3726 1582.21 37.4752 1582.38 37.5493C1582.57 37.6224 1582.77 37.659 1582.99 37.659C1583.23 37.659 1583.44 37.6184 1583.62 37.5371C1583.8 37.459 1583.95 37.3381 1584.06 37.1857C1584.16 37.0335 1584.21 36.8533 1584.21 36.6698C1584.22 36.4794 1584.16 36.2926 1584.05 36.1376C1583.94 35.9746 1583.78 35.849 1583.59 35.777C1583.36 35.6849 1583.12 35.6407 1582.87 35.647H1582.28V34.7187H1582.87C1583.1 34.7187 1583.31 34.6781 1583.48 34.5989C1583.65 34.5177 1583.79 34.4059 1583.89 34.2607C1583.99 34.1134 1584.04 33.9438 1584.04 33.7509C1584.04 33.5782 1584 33.4077 1583.91 33.2613C1583.82 33.1196 1583.7 33.0056 1583.55 32.9333C1583.38 32.8513 1583.19 32.8113 1583 32.8165C1582.8 32.8165 1582.62 32.853 1582.44 32.9272C1582.28 32.9932 1582.14 33.1019 1582.03 33.242C1581.92 33.3786 1581.86 33.5476 1581.85 33.7224H1580.7C1580.71 33.3497 1580.81 33.0227 1581.02 32.7423C1581.22 32.458 1581.5 32.2376 1581.84 32.0801C1582.19 31.9197 1582.59 31.8394 1583.01 31.8394C1583.46 31.8394 1583.85 31.9227 1584.17 32.0893C1584.5 32.2538 1584.75 32.4752 1584.93 32.7545C1585.12 33.0338 1585.21 33.3426 1585.21 33.6798C1585.21 34.0545 1585.1 34.3684 1584.87 34.6212C1584.65 34.8752 1584.36 35.0397 1584 35.1179V35.1697C1584.47 35.2347 1584.83 35.4084 1585.07 35.6897C1585.33 35.968 1585.45 36.3153 1585.45 36.7317C1585.45 37.1034 1585.34 37.4366 1585.13 37.7311C1584.92 38.0236 1584.63 38.2521 1584.26 38.4187C1583.9 38.5852 1583.47 38.6695 1582.99 38.6695Z" fill="#111112"/>
</g>
</g>
<defs>
<linearGradient id="paint0_linear_9_147" x1="-96" y1="22" x2="1824" y2="22" gradientUnits="userSpaceOnUse">
<stop stop-opacity="0"/>
<stop offset="0.253959"/>
<stop offset="0.5"/>
<stop offset="0.739478"/>
<stop offset="1" stop-opacity="0"/>
</linearGradient>
<clipPath id="clip0_9_147">
<rect width="2314" height="38.5938" fill="white" transform="translate(-727.94 1)"/>
</clipPath>
</defs>
</svg>
