<svg width="12" height="12" viewBox="0 0 12 12" fill="none" xmlns="http://www.w3.org/2000/svg">
<path d="M4.92725 1.05557C5.28005 0.266633 6.40005 0.266633 6.75285 1.05556L7.68154 3.13189C7.82694 3.4569 8.13414 3.68011 8.48825 3.71793L10.7499 3.95956C11.6092 4.05137 11.9553 5.1165 11.314 5.6959L9.62635 7.22076C9.36215 7.45946 9.24485 7.82061 9.31825 8.169L9.78735 10.3947C9.96555 11.2403 9.05955 11.8986 8.31035 11.4678L6.33855 10.3339C6.02995 10.1564 5.65014 10.1564 5.34154 10.3339L3.36974 11.4678C2.62054 11.8986 1.71455 11.2403 1.89275 10.3947L2.36184 8.169C2.43524 7.82061 2.31794 7.45946 2.05374 7.22076L0.366045 5.6959C-0.275255 5.1165 0.0708448 4.05137 0.930145 3.95956L3.19185 3.71793C3.54595 3.68011 3.85315 3.4569 3.99845 3.13189L4.92725 1.05557Z" fill="#111112"/>
</svg>
