<svg width="1368" height="289" viewBox="0 0 1368 289" fill="none" xmlns="http://www.w3.org/2000/svg">
<path d="M4.11932 9.54545H38.5653L71.733 72.1875H73.1534L106.321 9.54545H140.767L87.7131 103.58V155H57.1733V103.58L4.11932 9.54545Z" fill="white"/>
<path d="M400.334 27L226.666 27C195.923 27 171 52.0721 171 83C171 113.928 195.923 139 226.666 139L400.334 139C431.077 139 456 113.928 456 83C456 52.0721 431.077 27 400.334 27Z" stroke="white" stroke-width="37"/>
<g clip-path="url(#clip0_159_947)">
<g clip-path="url(#clip1_159_947)">
<path d="M589.966 10.0955H620.719V104.556C620.719 115.162 618.185 124.442 613.119 132.397C608.1 140.351 601.069 146.554 592.025 151.005C582.982 155.408 572.447 157.61 560.42 157.61C548.346 157.61 537.788 155.408 528.744 151.005C519.701 146.554 512.669 140.351 507.65 132.397C502.631 124.442 500.122 115.162 500.122 104.556V10.0955H530.875V101.928C530.875 107.468 532.082 112.392 534.497 116.701C536.959 121.009 540.416 124.395 544.866 126.857C549.317 129.319 554.502 130.55 560.42 130.55C566.386 130.55 571.571 129.319 575.974 126.857C580.425 124.395 583.858 121.009 586.273 116.701C588.735 112.392 589.966 107.468 589.966 101.928V10.0955ZM656.31 155.55V10.0955H713.696C724.681 10.0955 734.056 12.0605 741.821 15.9904C749.633 19.873 755.576 25.3891 759.648 32.5387C763.767 39.641 765.827 47.998 765.827 57.6097C765.827 67.2688 763.743 75.5785 759.577 82.5387C755.41 89.4516 749.373 94.7546 741.466 98.4478C733.606 102.141 724.089 103.988 712.915 103.988H674.491V79.2716H707.943C713.814 79.2716 718.691 78.4667 722.574 76.8569C726.456 75.247 729.345 72.8322 731.239 69.6125C733.18 66.3928 734.15 62.3919 734.15 57.6097C734.15 52.7802 733.18 48.7082 731.239 45.3938C729.345 42.0794 726.433 39.5699 722.503 37.8654C718.62 36.1135 713.72 35.2375 707.801 35.2375H687.062V155.55H656.31ZM734.861 89.3569L771.011 155.55H737.062L701.693 89.3569H734.861ZM852.416 10.0955L887.572 120.607H888.922L924.149 10.0955H958.24L908.098 155.55H868.467L818.254 10.0955H852.416ZM1083.21 82.8228C1083.21 98.6845 1080.2 112.179 1074.19 123.306C1068.22 134.433 1060.08 142.932 1049.76 148.803C1039.48 154.627 1027.93 157.539 1015.1 157.539C1002.17 157.539 990.571 154.603 980.297 148.732C970.022 142.861 961.902 134.362 955.936 123.235C949.97 112.108 946.987 98.6372 946.987 82.8228C946.987 66.961 949.97 53.4667 955.936 42.3398C961.902 31.2129 970.022 22.7375 980.297 16.9137C990.571 11.0425 1002.17 8.10686 1015.1 8.10686C1027.93 8.10686 1039.48 11.0425 1049.76 16.9137C1060.08 22.7375 1068.22 31.2129 1074.19 42.3398C1080.2 53.4667 1083.21 66.961 1083.21 82.8228ZM1052.03 82.8228C1052.03 72.5482 1050.49 63.8834 1047.41 56.8285C1044.38 49.7735 1040.1 44.4232 1034.56 40.7773C1029.02 37.1315 1022.53 35.3086 1015.1 35.3086C1007.66 35.3086 1001.18 37.1315 995.638 40.7773C990.098 44.4232 985.789 49.7735 982.712 56.8285C979.681 63.8834 978.166 72.5482 978.166 82.8228C978.166 93.0974 979.681 101.762 982.712 108.817C985.789 115.872 990.098 121.222 995.638 124.868C1001.18 128.514 1007.66 130.337 1015.1 130.337C1022.53 130.337 1029.02 128.514 1034.56 124.868C1040.1 121.222 1044.38 115.872 1047.41 108.817C1050.49 101.762 1052.03 93.0974 1052.03 82.8228ZM1118.74 10.0955V155.55H1087.99V10.0955H1118.74ZM1254.38 61.0188H1223.27C1222.71 56.9942 1221.55 53.4194 1219.79 50.2944C1218.04 47.122 1215.79 44.4231 1213.05 42.1978C1210.3 39.9724 1207.13 38.2678 1203.53 37.0841C1199.98 35.9004 1196.12 35.3086 1191.95 35.3086C1184.42 35.3086 1177.87 37.1788 1172.28 40.9194C1166.69 44.6125 1162.36 50.0103 1159.28 57.1125C1156.2 64.1675 1154.67 72.7375 1154.67 82.8228C1154.67 93.1921 1156.2 101.904 1159.28 108.959C1162.41 116.014 1166.76 121.341 1172.35 124.939C1177.94 128.538 1184.4 130.337 1191.74 130.337C1195.86 130.337 1199.67 129.792 1203.17 128.703C1206.73 127.614 1209.87 126.028 1212.62 123.945C1215.37 121.814 1217.64 119.234 1219.44 116.203C1221.29 113.173 1222.56 109.717 1223.27 105.834L1254.38 105.976C1253.58 112.652 1251.56 119.092 1248.35 125.294C1245.17 131.45 1240.89 136.966 1235.49 141.843C1230.14 146.672 1223.75 150.507 1216.31 153.348C1208.93 156.142 1200.57 157.539 1191.24 157.539C1178.27 157.539 1166.67 154.603 1156.44 148.732C1146.26 142.861 1138.21 134.362 1132.29 123.235C1126.42 112.108 1123.49 98.6372 1123.49 82.8228C1123.49 66.961 1126.47 53.4667 1132.44 42.3398C1138.4 31.2129 1146.5 22.7375 1156.73 16.9137C1166.95 11.0425 1178.46 8.10686 1191.24 8.10686C1199.67 8.10686 1207.48 9.29057 1214.68 11.658C1221.92 14.0254 1228.34 17.4819 1233.93 22.0273C1239.51 26.5254 1244.06 32.0415 1247.56 38.5756C1251.11 45.1097 1253.39 52.5908 1254.38 61.0188ZM1258.43 155.55V10.0955H1356.45V35.4506H1289.19V70.1097H1351.4V95.4648H1289.19V130.195H1356.73V155.55H1258.43Z" fill="white"/>
</g>
</g>
<path d="M557.494 178.208C556.254 181.432 554.973 185.359 553.65 189.988C552.328 194.535 550.964 200.115 549.558 206.728H546.83C547.492 202.429 547.698 198.833 547.45 195.94C547.285 192.964 546.665 190.443 545.59 188.376C544.02 185.235 541.746 182.837 538.77 181.184C535.877 179.531 532.736 178.704 529.346 178.704C525.048 178.704 520.873 179.985 516.822 182.548C512.772 185.028 509.01 188.417 505.538 192.716C502.066 197.015 499.008 201.892 496.362 207.348C493.717 212.721 491.65 218.343 490.162 224.212C488.674 229.999 487.93 235.661 487.93 241.2C487.93 249.301 489.501 255.377 492.642 259.428C495.866 263.479 500.206 265.504 505.662 265.504C509.134 265.504 512.896 264.677 516.946 263.024C521.08 261.371 524.676 258.973 527.734 255.832C529.966 253.6 531.868 250.996 533.438 248.02C535.092 244.961 536.91 241.035 538.894 236.24H541.622C539.556 243.763 537.944 249.839 536.786 254.468C535.712 259.015 534.885 262.859 534.306 266H531.578C531.826 264.264 531.95 262.859 531.95 261.784C531.95 259.883 531.62 258.849 530.958 258.684C530.297 258.436 529.264 258.767 527.858 259.676C524.469 261.908 521.08 263.809 517.69 265.38C514.301 266.951 509.878 267.736 504.422 267.736C495.329 267.736 488.22 265.297 483.094 260.42C478.052 255.46 475.53 248.185 475.53 238.596C475.53 232.975 476.398 227.271 478.134 221.484C479.87 215.615 482.35 209.993 485.574 204.62C488.798 199.247 492.642 194.452 497.106 190.236C501.57 186.02 506.53 182.672 511.986 180.192C517.442 177.712 523.312 176.472 529.594 176.472C534.968 176.472 538.894 177.299 541.374 178.952C543.937 180.605 546.169 182.465 548.07 184.532C549.228 185.689 550.302 185.855 551.294 185.028C552.369 184.119 553.568 181.845 554.89 178.208H557.494ZM558.725 263.768C560.709 263.768 562.982 262.528 565.545 260.048C568.107 257.485 570.711 254.055 573.357 249.756C576.002 245.457 578.441 240.58 580.673 235.124C582.905 229.668 584.682 224.005 586.005 218.136L583.897 231.528C579.185 244.755 574.431 254.096 569.637 259.552C564.925 265.008 560.089 267.736 555.129 267.736C551.243 267.736 548.309 266.331 546.325 263.52C544.423 260.709 543.473 257.113 543.473 252.732C543.473 248.764 544.134 244.465 545.457 239.836C546.779 235.124 548.598 230.453 550.913 225.824C553.31 221.195 556.038 216.979 559.097 213.176C562.155 209.373 565.462 206.315 569.017 204C572.654 201.685 576.333 200.528 580.053 200.528C582.946 200.528 585.137 201.975 586.625 204.868C588.195 207.679 588.526 211.647 587.617 216.772L586.253 217.516C586.831 213.135 586.542 209.621 585.385 206.976C584.227 204.248 582.326 202.884 579.681 202.884C576.953 202.884 574.101 204.496 571.125 207.72C568.231 210.944 565.503 215.16 562.941 220.368C560.378 225.493 558.311 231.073 556.741 237.108C555.17 243.06 554.385 248.764 554.385 254.22C554.385 257.775 554.757 260.255 555.501 261.66C556.327 263.065 557.402 263.768 558.725 263.768ZM589.973 202.264C591.957 202.181 593.941 202.016 595.925 201.768C597.909 201.52 599.727 201.107 601.381 200.528L585.881 255.336C585.715 256.08 585.467 257.072 585.137 258.312C584.889 259.469 584.889 260.544 585.137 261.536C585.467 262.528 586.335 263.024 587.741 263.024C589.394 263.024 591.006 262.115 592.577 260.296C594.147 258.477 595.718 255.171 597.289 250.376L598.777 245.788H601.133L598.033 254.84C596.214 259.8 593.982 263.189 591.337 265.008C588.691 266.827 586.17 267.736 583.773 267.736C580.549 267.736 578.275 266.661 576.953 264.512C575.878 262.611 575.589 260.42 576.085 257.94C576.581 255.377 577.159 252.815 577.821 250.252L589.973 202.264ZM644.463 204.496C642.314 204.496 639.875 206.025 637.147 209.084C634.502 212.06 631.774 216.152 628.963 221.36C626.235 226.485 623.631 232.272 621.151 238.72C618.754 245.168 616.728 251.864 615.075 258.808L617.307 245.416C622.68 229.213 627.764 217.681 632.559 210.82C637.436 203.959 642.603 200.528 648.059 200.528C651.944 200.528 655.044 201.975 657.359 204.868C659.756 207.761 660.955 212.143 660.955 218.012C660.955 221.732 660.418 225.824 659.343 230.288C658.351 234.752 656.822 239.175 654.755 243.556C652.771 247.937 650.291 251.988 647.315 255.708C644.422 259.345 641.074 262.28 637.271 264.512C633.468 266.661 629.252 267.736 624.623 267.736C622.143 267.736 619.911 266.992 617.927 265.504C616.026 264.016 614.744 261.867 614.083 259.056L615.075 256.576C616.232 259.635 617.555 261.784 619.043 263.024C620.614 264.264 622.432 264.884 624.499 264.884C627.31 264.884 629.996 263.809 632.559 261.66C635.122 259.428 637.478 256.493 639.627 252.856C641.776 249.219 643.636 245.209 645.207 240.828C646.86 236.364 648.1 231.941 648.927 227.56C649.836 223.096 650.291 219.004 650.291 215.284C650.291 211.647 649.754 208.96 648.679 207.224C647.687 205.405 646.282 204.496 644.463 204.496ZM625.863 183.292C627.847 183.209 629.79 183.044 631.691 182.796C633.675 182.548 635.494 182.135 637.147 181.556L609.867 276.912C608.875 280.384 609.371 282.74 611.355 283.98C613.339 285.22 616.191 285.84 619.911 285.84L619.167 288.444C617.514 288.361 615.158 288.237 612.099 288.072C609.123 287.989 605.94 287.948 602.551 287.948C599.988 287.948 597.384 287.989 594.739 288.072C592.094 288.237 590.11 288.361 588.787 288.444L589.531 285.84C592.507 285.84 594.656 285.261 595.979 284.104C597.302 283.029 598.376 281.045 599.203 278.152L625.863 183.292ZM600.071 221.732C603.295 218.591 606.312 215.491 609.123 212.432C611.934 209.291 614.662 205.571 617.307 201.272C619.952 196.973 622.639 191.559 625.367 185.028L625.739 187.012C622.928 195.444 619.456 202.388 615.323 207.844C611.19 213.3 606.56 218.467 601.435 223.344L600.071 221.732ZM702.22 202.264L701.848 204.744H663.284L663.904 202.264H702.22ZM670.724 255.46C669.98 258.188 670.145 260.172 671.22 261.412C672.377 262.569 673.865 263.148 675.684 263.148C677.502 263.148 679.321 262.363 681.14 260.792C683.041 259.221 684.901 255.873 686.72 250.748L688.456 245.912H690.812L688.208 253.724C686.389 259.097 684.033 262.776 681.14 264.76C678.329 266.744 675.022 267.736 671.22 267.736C666.177 267.736 662.87 266.124 661.3 262.9C659.812 259.676 659.812 255.501 661.3 250.376L680.52 183.416C682.504 183.333 684.446 183.168 686.348 182.92C688.332 182.672 690.109 182.259 691.68 181.68L670.724 255.46ZM736.684 223.096C733.708 231.363 730.856 238.348 728.128 244.052C725.4 249.756 722.672 254.344 719.944 257.816C717.299 261.288 714.571 263.809 711.76 265.38C709.032 266.951 706.18 267.736 703.204 267.736C697.748 267.736 694.483 265.959 693.408 262.404C692.333 258.767 692.705 254.303 694.524 249.012L706.552 212.804C707.379 210.324 707.668 208.423 707.42 207.1C707.172 205.777 706.221 205.116 704.568 205.116C702.997 205.116 701.427 205.984 699.856 207.72C698.368 209.456 696.756 212.804 695.02 217.764L693.408 222.352H691.052L694.152 213.3C695.971 208.092 698.285 204.661 701.096 203.008C703.907 201.355 706.593 200.528 709.156 200.528C712.793 200.528 715.191 201.396 716.348 203.132C717.588 204.785 718.043 206.935 717.712 209.58C717.464 212.225 716.844 214.995 715.852 217.888L704.072 253.352C701.757 260.296 702.667 263.768 706.8 263.768C709.28 263.768 711.925 262.404 714.736 259.676C717.629 256.865 720.523 252.939 723.416 247.896C726.309 242.853 729.12 236.901 731.848 230.04C734.576 223.096 737.015 215.491 739.164 207.224L736.684 223.096ZM736.312 255.46C735.733 257.692 735.444 259.552 735.444 261.04C735.527 262.445 736.395 263.148 738.048 263.148C739.867 263.148 741.52 262.197 743.008 260.296C744.579 258.312 746.149 255.047 747.72 250.5L749.332 245.912H751.688L748.588 254.964C746.769 260.172 744.455 263.603 741.644 265.256C738.833 266.909 736.147 267.736 733.584 267.736C732.261 267.736 731.021 267.447 729.864 266.868C728.707 266.289 727.839 265.463 727.26 264.388C726.599 262.983 726.351 261.205 726.516 259.056C726.764 256.907 727.343 254.013 728.252 250.376L740.404 202.264C742.471 202.181 744.455 202.016 746.356 201.768C748.34 201.52 750.117 201.107 751.688 200.528L736.312 255.46ZM762.895 266H752.107L766.987 212.804C767.814 209.993 768.062 208.009 767.731 206.852C767.483 205.695 766.657 205.116 765.251 205.116C763.433 205.116 761.779 206.067 760.291 207.968C758.803 209.869 757.233 213.135 755.579 217.764L753.967 222.352H751.611L754.711 213.3C756.53 208.092 758.845 204.661 761.655 203.008C764.466 201.355 767.153 200.528 769.715 200.528C773.022 200.528 775.089 201.479 775.915 203.38C776.825 205.199 777.073 207.431 776.659 210.076C776.246 212.721 775.709 215.325 775.047 217.888L762.895 266ZM794.763 203.628C792.862 203.628 790.878 204.537 788.811 206.356C786.827 208.092 784.761 210.655 782.611 214.044C780.545 217.351 778.437 221.36 776.287 226.072C774.221 230.701 772.154 235.868 770.087 241.572C768.103 247.276 766.161 253.435 764.259 260.048L767.359 244.176C770.087 236.075 772.609 229.255 774.923 223.716C777.321 218.177 779.677 213.713 781.991 210.324C784.306 206.852 786.662 204.372 789.059 202.884C791.539 201.313 794.143 200.528 796.871 200.528C799.186 200.528 800.963 201.189 802.203 202.512C803.526 203.835 804.187 205.529 804.187 207.596C804.187 210.076 803.319 212.184 801.583 213.92C799.847 215.656 797.822 216.524 795.507 216.524C794.102 216.524 792.903 216.152 791.911 215.408C791.002 214.581 790.547 213.465 790.547 212.06C790.547 210.076 791.085 208.423 792.159 207.1C793.234 205.777 794.557 204.785 796.127 204.124C795.962 203.959 795.755 203.835 795.507 203.752C795.342 203.669 795.094 203.628 794.763 203.628ZM798.762 237.852C803.392 236.281 807.566 234.752 811.286 233.264C815.089 231.693 818.106 230.04 820.338 228.304C823.314 225.907 825.67 223.013 827.406 219.624C829.142 216.235 830.01 212.515 830.01 208.464C830.01 206.067 829.845 204.537 829.514 203.876C829.184 203.215 828.688 202.884 828.026 202.884C825.464 202.884 822.653 204.289 819.594 207.1C816.536 209.828 813.642 213.548 810.914 218.26C808.186 222.889 805.913 228.015 804.094 233.636C802.358 239.257 801.49 244.92 801.49 250.624C801.49 254.84 802.276 257.899 803.846 259.8C805.417 261.619 807.484 262.528 810.046 262.528C813.022 262.528 816.164 261.619 819.47 259.8C822.777 257.981 826.001 254.757 829.142 250.128L831.127 251.12C829.556 253.848 827.489 256.493 824.926 259.056C822.364 261.619 819.47 263.727 816.246 265.38C813.105 266.951 809.757 267.736 806.202 267.736C801.16 267.736 797.15 266.289 794.174 263.396C791.281 260.42 789.834 256.039 789.834 250.252C789.834 246.697 790.496 242.729 791.818 238.348C793.141 233.884 795.001 229.461 797.398 225.08C799.878 220.616 802.813 216.524 806.202 212.804C809.592 209.084 813.353 206.108 817.486 203.876C821.62 201.644 826.042 200.528 830.754 200.528C833.317 200.528 835.466 201.231 837.202 202.636C839.021 203.959 839.93 205.984 839.93 208.712C839.93 212.019 838.938 215.119 836.954 218.012C835.053 220.823 832.49 223.427 829.266 225.824C826.125 228.139 822.694 230.205 818.974 232.024C815.254 233.843 811.617 235.413 808.062 236.736C804.508 238.059 801.366 239.133 798.638 239.96L798.762 237.852ZM877.343 255.46C876.764 257.361 876.516 259.139 876.599 260.792C876.764 262.363 877.756 263.148 879.575 263.148C881.228 263.148 882.757 262.239 884.163 260.42C885.568 258.519 887.056 255.212 888.627 250.5L890.115 245.912H892.471L889.619 254.964C888.048 260.007 885.857 263.396 883.047 265.132C880.319 266.868 877.715 267.736 875.235 267.736C870.275 267.736 867.671 265.38 867.423 260.668C867.34 259.345 867.423 257.816 867.671 256.08C868.001 254.344 868.456 252.443 869.035 250.376L886.891 183.292C887.635 180.481 887.511 178.415 886.519 177.092C885.527 175.769 883.005 175.108 878.955 175.108L879.699 172.504C884.245 172.421 888.255 171.967 891.727 171.14C895.199 170.231 898.505 168.991 901.647 167.42L877.343 255.46ZM849.567 263.768C851.633 263.768 853.948 262.569 856.511 260.172C859.156 257.692 861.801 254.385 864.447 250.252C867.175 246.036 869.655 241.283 871.887 235.992C874.201 230.619 876.02 225.08 877.343 219.376L875.483 232.768C872.259 241.283 869.035 248.103 865.811 253.228C862.669 258.353 859.445 262.073 856.139 264.388C852.915 266.62 849.525 267.736 845.971 267.736C842.085 267.736 838.944 266.413 836.547 263.768C834.232 261.04 833.075 256.907 833.075 251.368C833.075 247.4 833.695 243.143 834.935 238.596C836.257 233.967 838.117 229.42 840.515 224.956C842.912 220.492 845.764 216.441 849.071 212.804C852.46 209.084 856.18 206.108 860.231 203.876C864.281 201.644 868.58 200.528 873.127 200.528C875.028 200.528 876.805 201.272 878.459 202.76C880.112 204.165 881.021 206.315 881.187 209.208L880.195 211.688C879.864 208.712 879.037 206.604 877.715 205.364C876.392 204.041 874.904 203.38 873.251 203.38C869.283 203.38 865.521 204.992 861.967 208.216C858.495 211.44 855.395 215.615 852.667 220.74C850.021 225.865 847.913 231.28 846.343 236.984C844.855 242.688 844.111 248.02 844.111 252.98C844.111 256.617 844.565 259.345 845.475 261.164C846.384 262.9 847.748 263.768 849.567 263.768Z" fill="#F6F6F6"/>
<defs>
<clipPath id="clip0_159_947">
<rect width="881" height="154" fill="white" transform="translate(487 6)"/>
</clipPath>
<clipPath id="clip1_159_947">
<rect width="881" height="154" fill="white" transform="translate(487 6)"/>
</clipPath>
</defs>
</svg>
