<svg width="19" height="20" viewBox="0 0 19 20" fill="none" xmlns="http://www.w3.org/2000/svg">
<g clip-path="url(#clip0_25_1117)">
<g clip-path="url(#clip1_25_1117)">
<g opacity="0.6">
<path d="M17.4868 14.1785C17.9638 14.1785 18.3505 13.7918 18.3505 13.3148C18.3505 12.8379 17.9638 12.4512 17.4868 12.4512C17.0097 12.4512 16.623 12.8379 16.623 13.3148C16.623 13.7918 17.0097 14.1785 17.4868 14.1785Z" fill="white"/>
<path d="M15.603 16.9601C16.08 16.9601 16.4667 16.5735 16.4667 16.0965C16.4667 15.6195 16.08 15.2329 15.603 15.2329C15.126 15.2329 14.7393 15.6195 14.7393 16.0965C14.7393 16.5735 15.126 16.9601 15.603 16.9601Z" fill="white"/>
<path d="M18.1362 10.8645C18.6132 10.8645 18.9999 10.4778 18.9999 10.0009C18.9999 9.52387 18.6132 9.13721 18.1362 9.13721C17.6592 9.13721 17.2725 9.52387 17.2725 10.0009C17.2725 10.4778 17.6592 10.8645 18.1362 10.8645Z" fill="white"/>
<path d="M12.8054 18.8474C13.2824 18.8474 13.6691 18.4607 13.6691 17.9837C13.6691 17.5068 13.2824 17.1201 12.8054 17.1201C12.3284 17.1201 11.9417 17.5068 11.9417 17.9837C11.9417 18.4607 12.3284 18.8474 12.8054 18.8474Z" fill="white"/>
<path d="M9.50165 17.7703C8.25764 17.7718 7.03145 17.4748 5.92607 16.9041C4.8207 16.3335 3.86844 15.5059 3.1493 14.4909C2.43015 13.476 1.96513 12.3032 1.79329 11.0713C1.62146 9.83927 1.74783 8.58407 2.16179 7.41108C2.57575 6.23808 3.26521 5.18156 4.17224 4.33028C5.07928 3.47899 6.1774 2.8578 7.37434 2.51889C8.57128 2.17999 9.83209 2.13327 11.0508 2.38267C12.2696 2.63206 13.4107 3.17028 14.3782 3.95211H12.9565C12.7275 3.95211 12.5078 4.0431 12.3458 4.20506C12.1838 4.36702 12.0928 4.58669 12.0928 4.81574C12.0928 5.04479 12.1838 5.26446 12.3458 5.42642C12.5078 5.58839 12.7275 5.67938 12.9565 5.67938H16.4114C16.6405 5.67938 16.8602 5.58839 17.0222 5.42642C17.1841 5.26446 17.2751 5.04479 17.2751 4.81574V1.3612C17.2751 1.13215 17.1841 0.912475 17.0222 0.750512C16.8602 0.588549 16.6405 0.497559 16.4114 0.497559C16.1824 0.497559 15.9627 0.588549 15.8007 0.750512C15.6387 0.912475 15.5477 1.13215 15.5477 1.3612V2.68342C14.3732 1.71248 12.9822 1.03843 11.4922 0.718218C10.0023 0.398007 8.45716 0.441036 6.98735 0.843672C5.51754 1.24631 4.16623 1.99672 3.04756 3.03153C1.92888 4.06634 1.0757 5.35515 0.56008 6.7891C0.0444583 8.22305 -0.118458 9.76001 0.0850918 11.2702C0.288642 12.7804 0.852678 14.2194 1.72956 15.4657C2.60644 16.712 3.77041 17.7289 5.12315 18.4307C6.4759 19.1325 7.97768 19.4984 9.50165 19.4976C9.73072 19.4976 9.95041 19.4066 10.1124 19.2446C10.2744 19.0827 10.3654 18.863 10.3654 18.634C10.3654 18.4049 10.2744 18.1852 10.1124 18.0233C9.95041 17.8613 9.73072 17.7703 9.50165 17.7703Z" fill="white"/>
<path d="M12.7035 13.1991C12.8654 13.0371 12.9564 12.8175 12.9564 12.5885C12.9564 12.3595 12.8654 12.1399 12.7035 11.9779L10.3654 9.64005V4.81578C10.3654 4.58673 10.2744 4.36706 10.1124 4.2051C9.95043 4.04314 9.73074 3.95215 9.50167 3.95215C9.27259 3.95215 9.0529 4.04314 8.89092 4.2051C8.72894 4.36706 8.63794 4.58673 8.63794 4.81578V9.9976C8.63799 10.2266 8.72902 10.4463 8.89101 10.6082L11.4822 13.1991C11.6441 13.361 11.8638 13.452 12.0928 13.452C12.3218 13.452 12.5415 13.361 12.7035 13.1991Z" fill="white"/>
</g>
</g>
</g>
<defs>
<clipPath id="clip0_25_1117">
<rect width="19" height="20" fill="white" transform="translate(0 -0.00244141)"/>
</clipPath>
<clipPath id="clip1_25_1117">
<rect width="19" height="20" fill="white" transform="translate(0 -0.00244141)"/>
</clipPath>
</defs>
</svg>
