<svg width="13" height="14" viewBox="0 0 13 14" fill="none" xmlns="http://www.w3.org/2000/svg">
<g clip-path="url(#clip0_25_958)">
<path d="M1.94795 0.451383V1.29538C1.94795 1.34581 1.95789 1.39574 1.97718 1.44233C1.99648 1.48892 2.02477 1.53125 2.06042 1.56691C2.13244 1.63893 2.23011 1.67938 2.33195 1.67938H10.248L0.111954 11.8154C0.0399575 11.8874 -0.000488281 11.9851 -0.000488281 12.0869C-0.000488281 12.1887 0.0399575 12.2864 0.111954 12.3584L0.709954 12.9554C0.859954 13.1054 1.10295 13.1054 1.25295 12.9554L11.388 2.81938V10.7364C11.3882 10.8381 11.4288 10.9355 11.5008 11.0073C11.5728 11.0791 11.6703 11.1194 11.772 11.1194H12.616C12.7175 11.1194 12.8148 11.0792 12.8868 11.0076C12.9587 10.936 12.9994 10.8389 13 10.7374V0.450383C12.9997 0.348713 12.9591 0.251298 12.8871 0.1795C12.8151 0.107702 12.7176 0.0673825 12.616 0.0673828L2.33195 0.0673828C2.23011 0.0673828 2.13244 0.10784 2.06042 0.179854C1.98841 0.251868 1.94795 0.34954 1.94795 0.451383Z" fill="white"/>
</g>
<defs>
<clipPath id="clip0_25_958">
<rect width="13" height="13" fill="white" transform="translate(0 0.0673828)"/>
</clipPath>
</defs>
</svg>
