<svg width="30" height="31" viewBox="0 0 30 31" fill="none" xmlns="http://www.w3.org/2000/svg">
<g clip-path="url(#clip0_32_2068)">
<rect y="0.5" width="30" height="30" rx="15" fill="white"/>
<path d="M16.3667 -3.63333C16.3667 -3.9958 16.2227 -4.34341 15.9664 -4.59971C15.7101 -4.85601 15.3625 -5 15 -5C14.6375 -5 14.2899 -4.85601 14.0336 -4.59971C13.7773 -4.34341 13.6333 -3.9958 13.6333 -3.63333V12.2018L5.33676 3.90156C5.21075 3.77097 5.05999 3.66678 4.89329 3.59508C4.72658 3.52338 4.54727 3.48559 4.3658 3.48393C4.18434 3.48227 4.00436 3.51676 3.83637 3.5854C3.66838 3.65404 3.51574 3.75544 3.38736 3.8837C3.25898 4.01196 3.15743 4.1645 3.08864 4.33243C3.01984 4.50035 2.98518 4.6803 2.98667 4.86176C2.98816 5.04323 3.02577 5.22258 3.09732 5.38935C3.16886 5.55613 3.27291 5.70698 3.40338 5.83311L11.7018 14.1333H-4.13333C-4.4958 14.1333 -4.84341 14.2773 -5.09971 14.5336C-5.35601 14.7899 -5.5 15.1375 -5.5 15.5C-5.5 15.8625 -5.35601 16.2101 -5.09971 16.4664C-4.84341 16.7227 -4.4958 16.8667 -4.13333 16.8667H11.7018L3.40338 25.1632C3.1543 25.4209 3.01639 25.766 3.01933 26.1244C3.02227 26.4827 3.16584 26.8256 3.41912 27.0791C3.67239 27.3326 4.0151 27.4765 4.37344 27.4798C4.73177 27.483 5.07706 27.3455 5.33493 27.0966L13.6333 18.8V34.6333C13.6333 34.9958 13.7773 35.3434 14.0336 35.5997C14.2899 35.856 14.6375 36 15 36C15.3625 36 15.7101 35.856 15.9664 35.5997C16.2227 35.3434 16.3667 34.9958 16.3667 34.6333V18.7982L24.6632 27.0966C24.9209 27.3457 25.266 27.4836 25.6244 27.4807C25.9827 27.4777 26.3256 27.3342 26.5791 27.0809C26.8326 26.8276 26.9765 26.4849 26.9798 26.1266C26.983 25.7682 26.8455 25.4229 26.5966 25.1651L18.3 16.8667H34.1333C34.4958 16.8667 34.8434 16.7227 35.0997 16.4664C35.356 16.2101 35.5 15.8625 35.5 15.5C35.5 15.1375 35.356 14.7899 35.0997 14.5336C34.8434 14.2773 34.4958 14.1333 34.1333 14.1333H18.2982L26.5966 5.83676C26.7272 5.71075 26.8314 5.55999 26.9031 5.39329C26.9748 5.22658 27.0126 5.04727 27.0143 4.8658C27.0159 4.68434 26.9814 4.50436 26.9128 4.33637C26.8441 4.16838 26.7427 4.01574 26.6145 3.88736C26.4862 3.75898 26.3337 3.65743 26.1657 3.58864C25.9978 3.51984 25.8179 3.48518 25.6364 3.48667C25.4549 3.48816 25.2756 3.52577 25.1088 3.59732C24.9421 3.66886 24.7912 3.77291 24.6651 3.90338L16.3667 12.2V-3.63333Z" fill="black"/>
</g>
<defs>
<clipPath id="clip0_32_2068">
<rect y="0.5" width="30" height="30" rx="15" fill="white"/>
</clipPath>
</defs>
</svg>
